<svg viewBox="0 0 100 100" xmlns="http://www.w3.org/2000/svg" width="2500" height="2500"><g stroke-linejoin="round" stroke-miterlimit="0"><path d="M0 0h100v100H0z" fill="#52a535" stroke-width="8.886"/><path d="M20 20v3h20v-3zm40 0v3h20v-3zM40 40v3h20v-3zM30 50v3h10v-3zm30 0v3h10v-3z" fill="#2a641c" stroke-width="7.113"/><path d="M20 38.5v3h20v-3zm40 0v3h20v-3zm-20 30v3h20v-3zm-10 10v3h10v-3zm30 0v3h10v-3z" fill="#80d05d" stroke-width="10.69"/><path d="M20 21.5V40h20V21.5zm40 0V40h20V21.5zm-20 20v10H30V80h10V70h20v10h10V51.5H60v-10z" stroke-width="7.663"/></g></svg>